<?xml version="1.0" standalone="no"?>
<!DOCTYPE svg PUBLIC "-//W3C//DTD SVG 20010904//EN"
 "http://www.w3.org/TR/2001/REC-SVG-20010904/DTD/svg10.dtd">
<svg version="1.0" xmlns="http://www.w3.org/2000/svg"
 width="400.000000pt" height="400.000000pt" viewBox="0 0 400.000000 400.000000"
 preserveAspectRatio="xMidYMid meet">
<metadata>
Created by potrace 1.11, written by Peter Selinger 2001-2013
</metadata>
<g transform="translate(0.000000,400.000000) scale(0.100000,-0.100000)"
fill="#000000" stroke="none">
<path d="M1869 3986 c-2 -2 -39 -7 -81 -10 -43 -3 -83 -8 -90 -11 -7 -2 -29
-6 -48 -9 -75 -11 -270 -62 -325 -85 -11 -5 -36 -15 -55 -22 -73 -27 -188 -83
-275 -134 -236 -138 -437 -321 -599 -542 -169 -232 -279 -477 -342 -768 -13
-59 -20 -107 -33 -220 -9 -75 -7 -373 3 -415 3 -14 8 -43 11 -65 10 -84 17
-120 26 -131 5 -6 7 -13 4 -16 -13 -13 77 -276 145 -422 122 -262 343 -533
592 -723 150 -115 350 -222 533 -286 151 -52 274 -81 445 -104 102 -13 493 -4
520 12 3 2 26 6 50 10 25 3 63 11 85 17 22 5 51 12 65 15 132 23 425 155 590
265 138 92 184 131 311 257 114 115 179 195 263 324 49 75 147 250 147 262 0
2 9 26 20 51 28 67 89 253 95 294 3 19 8 38 10 41 2 4 6 24 10 45 3 22 7 50 9
64 7 42 23 173 24 200 12 331 -31 590 -145 870 -186 457 -529 823 -978 1040
-107 52 -296 122 -359 134 -12 2 -40 9 -62 14 -22 6 -56 13 -75 16 -19 3 -66
11 -105 17 -65 10 -378 22 -386 15z"/>
</g>
</svg>
