<?xml version="1.0" standalone="no"?>
<!DOCTYPE svg PUBLIC "-//W3C//DTD SVG 20010904//EN"
 "http://www.w3.org/TR/2001/REC-SVG-20010904/DTD/svg10.dtd">
<svg version="1.0" xmlns="http://www.w3.org/2000/svg"
 width="512.000000pt" height="512.000000pt" viewBox="0 0 512.000000 512.000000"
 preserveAspectRatio="xMidYMid meet">
<metadata>
Created by potrace 1.11, written by Peter Selinger 2001-2013
</metadata>
<g transform="translate(0.000000,512.000000) scale(0.100000,-0.100000)"
fill="#000000" stroke="none">
<path d="M748 4597 c-12 -4 -30 -6 -40 -4 -9 3 -19 -2 -23 -11 -3 -8 -8 -12
-11 -9 -10 9 -117 -48 -153 -82 -18 -17 -38 -31 -44 -31 -6 0 -8 -3 -4 -6 5
-5 -10 -27 -40 -59 -7 -8 -13 -17 -13 -22 0 -5 -11 -25 -25 -44 -13 -20 -21
-39 -18 -43 4 -3 1 -6 -6 -6 -7 0 -10 -3 -8 -8 3 -4 -3 -25 -14 -46 -10 -21
-16 -43 -13 -47 3 -5 0 -9 -6 -9 -7 0 -10 -7 -7 -15 4 -8 3 -16 -1 -19 -10 -6
-15 -55 -15 -161 -1 -106 4 -141 23 -175 7 -14 13 -27 12 -30 -3 -10 33 -90
41 -90 4 0 7 -7 7 -16 0 -9 9 -24 19 -33 11 -10 21 -23 23 -31 2 -7 30 -37 63
-67 77 -70 82 -73 89 -66 3 4 6 1 6 -5 0 -7 6 -12 14 -12 7 0 19 -7 26 -15 7
-9 19 -14 27 -11 7 3 13 1 13 -4 0 -6 4 -10 9 -10 5 0 22 -5 38 -12 15 -6 34
-10 41 -9 6 1 12 -2 12 -6 0 -9 141 -9 176 0 12 3 44 13 70 22 27 9 56 18 64
20 8 2 29 8 47 14 17 5 34 7 37 3 3 -3 6 0 6 7 0 7 6 11 13 8 7 -3 24 3 37 13
13 10 29 16 36 13 6 -2 14 3 18 12 3 9 10 14 14 11 5 -3 23 8 41 24 18 17 36
30 42 30 5 0 8 3 7 8 -1 4 5 18 15 32 9 14 18 35 20 45 1 11 5 25 8 30 8 14 5
133 -4 170 l-8 31 108 2 c143 2 145 2 164 23 9 10 19 16 23 12 3 -3 6 3 6 15
0 12 5 22 11 22 5 0 7 5 3 11 -4 7 -8 19 -9 28 -5 35 -18 61 -30 61 -7 0 -15
5 -17 12 -3 8 -37 13 -104 14 -54 1 -101 3 -104 4 -3 1 -9 1 -15 0 -38 -8 -45
-8 -45 2 0 7 -4 7 -13 -1 -8 -6 -16 -9 -18 -6 -3 2 -27 7 -53 9 -86 9 -131 18
-142 27 -6 5 -14 6 -18 2 -4 -4 -17 -7 -29 -8 -21 0 -79 -37 -78 -49 1 -3 1
-7 0 -8 -6 -13 -3 -71 3 -74 5 -3 6 -10 3 -15 -4 -5 1 -9 10 -9 9 0 13 -4 10
-10 -3 -5 1 -10 9 -10 9 0 16 -4 16 -10 0 -5 8 -10 19 -10 10 0 24 -7 31 -15
7 -8 16 -12 21 -9 5 3 9 0 9 -6 0 -6 10 -24 21 -39 21 -28 32 -94 22 -132 -5
-20 -100 -72 -114 -63 -5 3 -9 0 -9 -5 0 -6 -3 -10 -7 -9 -5 1 -28 -4 -53 -12
-25 -7 -52 -14 -60 -14 -9 -1 -21 -5 -28 -10 -6 -4 -12 -4 -12 1 0 4 -4 2 -9
-6 -12 -18 -116 -19 -156 -1 -16 7 -33 13 -37 12 -5 -1 -8 3 -8 9 0 5 -4 7
-10 4 -5 -3 -10 -1 -10 4 0 6 -7 11 -15 11 -8 0 -40 25 -71 55 -31 30 -53 55
-49 55 5 0 2 8 -7 18 -12 14 -41 72 -39 79 0 1 -6 14 -13 28 -14 27 -15 177
-1 225 4 14 9 36 12 50 3 14 9 27 12 30 3 3 17 29 30 58 14 28 29 52 34 52 6
0 8 3 4 6 -10 10 64 74 113 97 42 20 60 21 312 22 148 0 268 4 268 8 0 5 4 6
8 3 8 -5 30 13 60 49 18 21 5 85 -24 111 -12 12 -25 19 -28 16 -3 -3 -6 -1 -6
5 0 12 -529 13 -562 0z"/>
<path d="M2753 4207 c-2 -4 -9 -5 -14 -1 -5 3 -42 -2 -82 -11 -86 -20 -116
-26 -139 -28 -10 -1 -18 -5 -18 -10 0 -4 -4 -6 -9 -3 -5 3 -25 -1 -45 -9 -20
-8 -36 -12 -36 -8 0 5 -4 3 -8 -2 -10 -15 -65 -39 -81 -36 -7 1 -10 -2 -6 -8
3 -7 -2 -11 -14 -11 -12 0 -21 -5 -21 -12 0 -6 -3 -8 -6 -5 -4 4 -19 -2 -34
-13 -15 -11 -30 -17 -34 -13 -3 3 -6 0 -6 -7 0 -7 -3 -10 -7 -7 -3 4 -17 -3
-30 -15 -13 -12 -23 -17 -23 -12 0 5 -5 2 -10 -6 -5 -8 -13 -15 -17 -15 -11
-1 -97 -58 -101 -67 -2 -5 -8 -8 -13 -8 -5 0 -35 -20 -67 -45 -31 -25 -63 -45
-69 -45 -7 0 -13 -4 -13 -9 0 -4 -19 -21 -42 -37 -41 -28 -49 -34 -83 -62 -8
-7 -15 -9 -15 -5 0 4 -7 -3 -16 -15 -8 -12 -20 -22 -25 -22 -6 0 -23 -12 -39
-27 -16 -16 -47 -44 -70 -63 -78 -64 -95 -80 -88 -80 4 0 -6 -13 -24 -30 -17
-16 -27 -30 -23 -30 5 0 1 -6 -8 -12 -26 -20 -104 -166 -110 -207 -1 -9 -5
-20 -9 -26 -5 -8 -11 -30 -23 -85 -12 -54 -16 -70 -21 -100 -4 -19 -7 -59 -8
-87 0 -29 -4 -53 -7 -53 -6 0 -3 -86 5 -106 3 -8 1 -14 -5 -14 -6 0 -7 -5 -4
-10 4 -6 8 -28 11 -48 3 -36 11 -77 14 -77 1 0 3 -9 5 -20 5 -26 13 -60 15
-60 1 0 3 -8 6 -17 9 -40 8 -37 47 -131 9 -20 17 -41 17 -45 1 -4 8 -14 16
-23 8 -9 11 -19 7 -22 -3 -4 -1 -7 5 -7 6 0 9 -7 6 -15 -4 -8 -1 -15 6 -15 6
0 8 -4 5 -10 -3 -5 -3 -10 2 -10 4 0 17 -18 27 -40 11 -22 23 -40 28 -40 4 0
8 -8 8 -19 0 -10 7 -24 15 -31 8 -7 12 -16 9 -21 -3 -5 3 -9 12 -9 10 0 14 -3
11 -6 -4 -4 5 -21 19 -38 14 -17 33 -41 42 -53 9 -12 23 -22 31 -23 8 0 12 -3
8 -6 -6 -6 16 -34 28 -34 3 0 20 -13 38 -30 18 -16 38 -30 45 -30 6 0 12 -4
12 -10 0 -5 7 -10 15 -10 8 0 24 -9 35 -20 11 -11 27 -20 35 -20 8 0 15 -5 15
-11 0 -5 4 -8 9 -5 4 3 17 -1 27 -9 10 -8 27 -15 37 -15 9 0 17 -4 17 -10 0
-5 7 -7 15 -4 8 4 15 1 15 -5 0 -6 3 -10 8 -9 4 1 34 -6 66 -16 32 -9 71 -19
85 -21 14 -1 26 -4 26 -5 0 -1 11 -4 25 -5 14 -2 45 -7 70 -11 25 -4 53 -7 63
-8 9 0 17 -3 17 -6 0 -3 10 -7 23 -8 24 -1 58 -7 97 -16 14 -3 48 -10 75 -16
28 -6 61 -13 75 -16 14 -3 32 -6 40 -6 8 0 22 -2 30 -5 8 -3 29 -7 45 -9 70
-7 122 -14 145 -19 14 -3 44 -6 68 -6 23 0 42 -5 42 -11 0 -7 5 -6 14 1 8 7
16 8 19 4 5 -8 588 -9 617 -1 8 3 42 13 75 24 33 10 65 19 70 20 6 1 13 3 18
4 4 1 11 3 16 4 5 0 13 4 17 8 4 5 18 8 31 8 13 0 23 5 23 10 0 6 7 10 16 10
18 0 96 42 144 78 48 36 110 98 104 104 -2 3 2 11 11 18 8 7 15 20 15 29 0 9
7 25 15 35 8 11 15 28 15 38 0 10 5 18 11 18 5 0 8 4 5 8 -3 5 1 20 9 35 7 14
11 28 8 31 -3 3 0 13 8 22 8 10 13 19 12 21 -2 1 -2 5 -2 8 1 3 2 13 3 23 1 9
5 23 10 31 5 8 10 29 12 48 2 18 7 39 11 46 10 15 42 130 49 177 3 19 7 78 8
130 1 53 6 101 10 108 4 7 3 12 -1 12 -10 0 -11 120 -1 136 4 6 4 14 0 18 -11
12 -9 146 3 146 6 0 7 3 0 8 -12 9 -15 72 -3 72 5 0 6 6 1 13 -4 6 -9 30 -10
52 -4 92 -7 115 -12 115 -3 0 -7 19 -8 43 -3 38 -9 82 -13 82 -1 0 -3 11 -6
25 -5 29 -19 67 -45 127 -11 24 -19 46 -19 49 0 3 -9 19 -21 35 -11 16 -17 29
-12 29 4 0 3 4 -2 8 -15 10 -65 90 -65 102 0 6 -4 8 -10 5 -5 -3 -10 0 -10 7
0 7 -15 29 -33 49 -67 76 -77 90 -72 99 4 6 2 10 -3 10 -8 0 -21 21 -73 120
-13 24 -28 49 -34 55 -5 7 -21 26 -34 43 -13 18 -30 32 -37 32 -8 0 -14 5 -14
11 0 5 -5 7 -12 3 -18 -11 -108 -13 -108 -3 0 5 -10 9 -23 9 -13 0 -27 3 -31
7 -3 4 -12 8 -19 9 -7 2 -23 5 -37 9 -53 12 -86 18 -115 20 -16 2 -30 4 -30 5
0 12 -654 19 -662 7z m610 -198 c36 -2 38 -4 32 -27 -3 -13 -11 -30 -18 -37
-25 -27 -47 -55 -42 -55 3 0 -30 -36 -74 -80 -44 -44 -83 -80 -85 -80 -3 0
-19 -12 -35 -27 -16 -16 -40 -37 -54 -48 -190 -156 -204 -173 -195 -236 5 -31
29 -69 45 -69 7 0 13 -8 13 -18 0 -12 -15 -26 -41 -38 -23 -10 -47 -23 -53
-29 -6 -5 -31 -21 -56 -34 -95 -51 -211 -132 -262 -183 -16 -15 -28 -25 -28
-22 0 4 -9 -4 -20 -18 -27 -36 -33 -77 -14 -118 26 -60 64 -78 169 -79 l39 -1
-24 -17 c-14 -10 -27 -16 -29 -14 -2 1 -7 -1 -10 -6 -10 -13 -65 -48 -73 -45
-5 1 -8 -3 -8 -8 0 -6 -6 -10 -14 -10 -8 0 -22 -7 -30 -16 -9 -8 -25 -16 -36
-17 -11 -1 -20 -5 -20 -9 0 -4 -6 -8 -13 -8 -20 0 -49 -56 -49 -95 1 -32 16
-70 37 -91 14 -14 25 -22 25 -18 0 3 6 2 13 -3 6 -6 20 -9 29 -8 9 2 19 -3 22
-11 10 -26 -16 -64 -56 -81 -21 -9 -38 -20 -38 -23 0 -4 -6 -7 -12 -7 -7 0
-37 -14 -66 -32 -29 -17 -55 -31 -57 -31 -2 0 -15 -11 -29 -25 -14 -14 -22
-25 -19 -25 3 0 0 -6 -6 -13 -6 -8 -8 -17 -4 -20 3 -4 1 -7 -6 -7 -9 0 -10
-11 -6 -37 6 -41 30 -83 46 -83 6 0 7 -5 3 -12 -4 -7 -3 -8 5 -4 16 10 51 -3
51 -20 0 -8 -5 -14 -12 -14 -6 0 -8 -3 -5 -7 4 -3 2 -11 -3 -18 -5 -6 -11 -22
-13 -34 -2 -13 -10 -27 -17 -31 -8 -5 -11 -12 -7 -16 4 -4 2 -13 -3 -19 -10
-12 -17 -11 -120 11 -71 15 -140 38 -140 46 0 6 -7 8 -15 5 -8 -4 -17 -2 -20
2 -2 5 -24 18 -47 30 -84 43 -99 53 -105 67 -3 8 -9 11 -14 8 -5 -3 -12 2 -15
10 -3 9 -10 13 -15 10 -5 -3 -9 2 -9 10 0 9 -7 16 -15 16 -8 0 -15 4 -15 9 0
4 -13 24 -30 42 -16 19 -37 51 -47 71 -10 21 -21 38 -25 38 -5 0 -8 6 -8 14 0
7 -7 19 -15 26 -9 7 -13 15 -11 18 3 3 -4 18 -15 33 -11 16 -17 29 -13 29 3 0
1 7 -6 15 -7 8 -9 15 -4 15 5 0 3 4 -4 9 -7 4 -14 14 -16 22 -1 8 -10 31 -20
51 -10 20 -19 45 -21 55 -2 10 -4 19 -5 21 -2 1 -4 7 -5 12 -1 6 -3 11 -5 13
-1 2 -6 20 -13 49 -1 7 -6 19 -10 26 -5 7 -3 12 5 12 9 0 9 3 -2 10 -8 5 -12
10 -8 10 4 0 3 14 -2 30 -5 19 -5 28 1 25 5 -4 5 4 -1 19 -7 18 -6 26 1 26 8
0 8 4 0 13 -6 8 -8 16 -5 19 3 4 7 35 9 70 2 34 6 81 10 103 9 56 57 209 68
216 5 3 8 9 8 13 -1 3 6 19 16 34 22 34 113 146 113 138 0 -3 15 8 33 25 17
17 79 67 137 110 58 43 112 85 120 91 8 7 18 12 22 11 5 -2 8 2 8 7 0 6 6 10
14 10 8 0 16 7 20 15 3 8 10 15 15 15 5 0 25 14 43 30 18 17 38 30 45 30 7 0
13 3 13 8 0 4 17 16 38 27 20 11 43 26 50 33 8 7 18 9 24 6 6 -4 8 -2 4 4 -3
6 3 13 14 17 11 3 20 10 20 15 0 5 6 7 13 4 8 -3 20 2 27 11 7 8 19 15 26 15
8 0 14 5 14 10 0 6 9 10 19 10 11 0 23 5 26 10 4 6 11 8 16 5 5 -4 9 -1 9 4 0
6 9 11 19 11 11 0 21 4 23 9 2 6 14 12 28 15 54 11 70 15 79 20 5 3 26 9 47
12 22 3 44 7 49 8 6 1 15 4 20 7 6 3 29 5 52 5 24 -1 43 1 43 4 0 5 464 3 573
-1z m376 -128 c15 -16 35 -47 46 -70 10 -23 22 -41 27 -41 4 0 8 -7 8 -15 0
-8 8 -24 18 -34 50 -55 72 -82 72 -90 0 -5 4 -11 8 -13 14 -5 86 -118 116
-180 36 -77 55 -138 61 -203 1 -16 4 -30 5 -30 8 0 11 -97 14 -402 1 -194 -1
-353 -4 -353 -3 0 -5 -13 -4 -30 1 -16 -1 -30 -5 -30 -4 0 -8 -6 -8 -12 -1
-21 -11 -60 -33 -122 -11 -32 -17 -62 -14 -67 3 -5 1 -9 -5 -9 -6 0 -8 -7 -5
-15 4 -8 2 -15 -3 -15 -5 0 -9 -8 -10 -17 -4 -63 -60 -199 -99 -240 -41 -42
-186 -108 -284 -128 -8 -2 -16 -4 -17 -5 -2 -2 -7 -4 -13 -5 -5 -1 -11 -3 -12
-5 -16 -12 -608 -23 -608 -10 0 3 -15 6 -32 6 -63 0 -113 8 -127 18 -12 9 -13
8 -7 -2 7 -11 4 -12 -10 -5 -11 5 -26 9 -34 8 -8 -1 -21 4 -29 9 -11 8 -13 8
-8 0 4 -7 -2 -10 -18 -6 -14 2 -25 8 -25 13 0 5 3 8 8 7 4 -1 18 4 32 12 14 8
31 15 39 16 8 2 17 8 21 14 4 7 10 11 14 11 11 -2 99 52 129 79 72 65 87 132
44 195 -15 22 -27 36 -27 31 0 -5 -8 -2 -17 6 -19 15 -63 21 -180 22 -40 1
-73 4 -73 8 0 3 -14 5 -31 4 -16 -1 -32 1 -35 5 -6 10 37 39 58 39 10 0 18 5
18 11 0 5 4 8 9 4 5 -3 12 -1 16 5 3 5 15 10 26 10 10 0 19 4 19 9 0 7 39 22
55 21 3 0 18 6 34 14 16 9 31 12 35 9 3 -4 6 -2 6 4 0 5 6 10 13 10 41 3 67 8
67 14 0 4 14 9 30 13 33 6 94 62 85 77 -4 5 -2 9 3 9 5 0 8 11 7 25 -6 46 -67
125 -98 125 -7 0 -18 5 -24 11 -6 6 -38 12 -71 12 -59 2 -66 7 -47 37 5 8 10
18 10 22 0 13 65 79 72 75 5 -3 14 1 21 9 7 8 10 14 7 14 -4 0 8 15 27 33 24
23 33 41 33 65 0 17 5 32 10 32 6 0 5 4 -2 8 -16 10 -11 38 10 62 9 11 13 20
9 20 -4 0 0 6 8 13 8 7 26 36 40 64 14 29 29 53 33 53 5 0 5 5 2 10 -3 6 -1
10 4 10 6 0 11 7 11 15 0 8 5 15 10 15 6 0 10 6 10 13 0 14 41 59 99 106 22
19 41 41 41 48 0 7 4 13 9 13 5 0 15 25 21 55 6 30 17 58 23 62 7 5 21 25 32
46 11 20 23 37 27 37 5 0 8 5 8 11 0 6 9 23 20 39 11 15 17 30 13 34 -3 3 1 6
11 6 9 0 15 4 11 9 -3 5 1 16 9 24 8 8 12 17 9 21 -3 3 2 8 11 12 9 3 16 12
16 20 0 7 9 19 20 27 11 8 17 17 14 20 -4 4 1 9 10 13 9 3 16 12 16 20 0 8 5
14 10 14 6 0 10 7 10 15 0 8 5 15 10 15 6 0 10 5 10 12 0 18 33 47 53 47 11 1
31 -12 46 -28z m-889 -856 c-7 -9 -15 -13 -19 -10 -3 3 1 10 9 15 21 14 24 12
10 -5z m-218 -1039 c10 -1 21 -6 25 -10 4 -4 3 -6 -2 -5 -5 2 -20 -2 -32 -9
-13 -7 -23 -10 -23 -7 0 2 -9 -3 -20 -13 -12 -9 -22 -15 -23 -12 -1 3 -15 -5
-30 -17 -38 -30 -60 -22 -42 15 8 15 15 34 17 42 6 29 28 32 130 16z"/>
<path d="M4430 1918 c0 -3 -11 -5 -25 -3 -14 1 -25 -1 -25 -4 0 -4 -15 -8 -32
-9 -81 -5 -98 -7 -98 -13 0 -7 -60 -23 -75 -20 -5 2 -7 0 -3 -4 7 -8 -27 -45
-42 -45 -5 0 -9 -3 -8 -7 0 -5 -9 -30 -22 -58 -19 -41 -24 -68 -25 -150 0 -55
3 -106 8 -112 6 -9 5 -13 -2 -13 -7 0 -9 -5 -4 -12 4 -7 9 -164 9 -348 2 -416
4 -490 16 -490 5 0 7 -3 4 -8 -2 -4 2 -18 10 -32 7 -14 13 -22 14 -17 0 4 11
0 25 -9 29 -19 82 -13 113 14 25 22 40 77 32 122 -6 36 -4 180 4 383 3 70 1
117 -5 117 -5 0 -9 10 -9 23 1 21 1 21 14 4 8 -10 23 -19 35 -20 12 -1 21 -4
21 -7 0 -3 37 -4 82 -3 46 0 83 2 83 3 0 2 67 10 105 13 14 1 27 5 30 9 3 4
25 9 48 10 23 2 42 7 42 11 0 5 5 5 10 2 6 -3 10 -2 10 3 0 9 52 36 59 30 4
-3 20 33 28 62 7 24 6 91 -2 150 -4 30 -8 61 -8 68 0 6 -3 12 -6 12 -4 0 -7
10 -9 23 -1 13 -9 41 -19 63 -9 21 -17 41 -18 44 -12 41 -69 130 -82 130 -7 0
-16 6 -20 13 -8 13 -58 48 -68 47 -3 0 -18 6 -34 14 -16 9 -31 13 -34 10 -3
-3 -11 -2 -19 2 -15 10 -108 12 -108 2z m60 -198 c8 5 24 3 39 -5 28 -14 78
-55 68 -55 -4 0 2 -16 13 -35 11 -20 20 -44 20 -54 0 -10 3 -21 7 -25 8 -7 11
-21 17 -83 3 -30 0 -43 -10 -47 -8 -3 -14 0 -14 6 0 7 -4 7 -12 0 -7 -5 -35
-13 -62 -16 -27 -4 -53 -9 -58 -12 -4 -3 -8 1 -8 8 0 8 -3 9 -8 3 -10 -14 -32
-17 -32 -4 0 5 -5 7 -12 3 -6 -4 -34 -8 -61 -9 -29 -1 -53 -8 -58 -16 -5 -8
-9 -10 -9 -5 0 6 -6 2 -13 -8 -11 -14 -13 -7 -14 51 -1 37 -4 92 -6 121 -3 31
-1 52 5 52 6 0 5 7 -2 15 -10 12 -10 15 1 15 9 0 10 3 4 8 -6 4 -10 13 -9 20
1 6 2 19 3 28 0 8 5 13 10 10 5 -4 11 -2 13 3 3 8 20 12 122 26 16 3 31 7 34
10 3 3 8 1 12 -4 3 -6 11 -6 20 -1z"/>
<path d="M690 1843 c0 -7 -3 -12 -7 -11 -16 4 -51 -13 -57 -28 -3 -8 -9 -13
-14 -10 -4 2 -9 -5 -10 -17 -1 -12 -3 -33 -5 -47 -2 -14 -1 -29 2 -35 3 -5 6
-25 6 -42 1 -18 4 -35 7 -38 12 -12 -4 -43 -25 -49 -12 -3 -18 -8 -14 -12 4
-4 1 -14 -5 -22 -13 -14 -19 -72 -8 -72 14 0 33 -70 34 -125 1 -33 5 -66 10
-73 4 -6 3 -12 -1 -12 -5 0 -9 -9 -9 -20 0 -11 3 -20 6 -20 4 0 7 -7 7 -15 0
-8 -3 -15 -6 -15 -4 0 -6 -19 -4 -42 1 -24 2 -43 3 -43 1 0 3 -8 5 -17 2 -10
0 -18 -4 -18 -4 0 -7 -10 -5 -23 1 -12 3 -22 4 -22 3 0 4 -10 14 -90 4 -27 9
-63 11 -80 3 -16 7 -46 9 -65 2 -19 5 -36 6 -37 1 -2 3 -7 4 -13 0 -5 9 -18
18 -30 10 -11 14 -20 10 -20 -4 0 -1 -4 7 -9 8 -5 24 -8 37 -6 13 1 24 -2 24
-8 0 -5 5 -5 13 2 8 6 17 8 20 4 4 -3 7 -1 7 6 0 7 4 10 9 7 10 -7 57 63 53
80 -1 6 32 11 90 13 123 3 128 4 128 16 0 5 5 3 10 -5 5 -8 10 -10 10 -4 0 9
50 29 100 40 3 0 13 4 22 8 10 5 29 9 43 10 14 0 25 4 25 9 0 4 9 7 20 7 11 0
20 5 20 10 0 6 6 10 13 10 18 0 87 36 81 43 -3 3 3 8 14 11 11 4 23 14 26 22
3 8 10 12 16 9 5 -3 10 1 10 9 0 9 5 16 11 16 5 0 8 4 5 8 -3 5 4 14 14 22 10
8 17 17 14 22 -3 4 -1 8 3 8 5 0 10 24 11 53 2 56 -16 157 -28 157 -4 0 -13
14 -20 30 -7 17 -16 30 -20 30 -4 0 -13 13 -20 29 -6 16 -18 32 -27 35 -8 3
-11 11 -7 17 4 7 3 9 -3 6 -6 -4 -21 6 -34 21 -13 15 -36 34 -51 41 -15 8 -37
22 -47 33 -11 10 -23 18 -26 18 -3 0 -11 5 -18 10 -36 31 -124 91 -149 102
-15 7 -28 19 -28 26 0 7 -4 10 -10 7 -5 -3 -10 -1 -10 4 0 6 -6 11 -13 11 -7
0 -23 9 -35 20 -12 11 -25 20 -30 20 -5 0 -15 7 -22 15 -7 8 -16 12 -21 10 -4
-3 -11 1 -16 9 -4 8 -10 15 -13 15 -3 0 -14 3 -25 6 -28 9 -39 12 -48 13 -5 0
-16 10 -26 21 -9 11 -30 23 -47 27 -16 4 -32 12 -36 18 -5 8 -8 7 -8 -1z m190
-324 c0 -4 13 -12 29 -19 16 -6 32 -18 35 -26 3 -8 12 -14 20 -14 8 0 19 -6
23 -12 4 -7 24 -22 43 -32 19 -11 40 -24 45 -28 6 -5 24 -20 40 -33 17 -14 36
-25 43 -25 6 0 12 -5 12 -11 0 -5 5 -7 10 -4 6 3 10 -1 10 -9 0 -9 4 -15 9
-14 14 4 91 -71 91 -88 0 -8 3 -14 8 -14 13 0 32 -54 26 -75 -7 -27 -82 -74
-144 -90 -3 -1 -18 -5 -35 -9 -16 -4 -39 -11 -50 -16 -61 -26 -115 -38 -115
-27 0 8 -3 8 -8 2 -10 -15 -116 -13 -122 2 -3 7 -5 111 -5 233 0 121 -2 220
-5 220 -3 0 -6 17 -7 38 -1 20 -5 47 -8 59 -5 20 -3 21 25 10 17 -6 30 -14 30
-18z"/>
</g>
</svg>
